<svg height="30" viewBox="0 0 23 30" width="23" xmlns="http://www.w3.org/2000/svg"><path d="m3.36617783 2.44874647s1.07116937 4.39259608 3.08071669 4.8539413c2.00954733.46134523 4.36377788.86095058 5.20847268-3.38793288.8446948-4.24888346.9441227-.10031166.9441227-.10031166s.4933831 3.48328902.7777467 5.82625107c.2843637 2.342962 3.1513116 5.5734401 4.1087775 7.2847471.9574658 1.7113071 7.1879003 9.8030088 1.8164371 10.6939911s-7.1806569.819754-9.47898689-2.8219567c-2.29832999-3.6417108-1.69759392-3.8883045-3.37656979-7.0641883-1.67897586-3.1758838-3.32121444-3.5264953-4.33483331-5.4834536s-.42997021-5.45631133 0-7.62869938c.42997022-2.17238805 1.25411662-2.17238805 1.25411662-2.17238805z" fill="#ebebe4" fill-rule="evenodd" stroke="#26223c" stroke-linecap="round" stroke-width="3"/></svg>