<svg height="33" viewBox="0 0 25 33" width="25" xmlns="http://www.w3.org/2000/svg"><path d="m10.3181532 3s.1270955.45867603 1.5169656 2.16628472c1.3898702 1.70760869 2.2581458 4.19037357 4.3237608 3.86571399 2.0656151-.32465957 2.2770214 1.42825049 2.3242103 3.29693059.0471888 1.8686801.8651296 3.0760865 1.7497641 5.8772191.8846344 2.8011326 3.7108554 7.573686 2.4576757 10.554204-1.2531797 2.9805179-5.5602538 2.63998-8.5164029 0-2.956149-2.6399801-6.79621968-9.6053616-6.79621968-9.6053616s-4.51314222-4.3696477-5.12092141-6.8260615c-.60777918-2.45641388-.14475706-3.83220742 1.46647399-4.90895603 1.61123106-1.07674862 6.5946935-4.41997327 6.5946935-4.41997327z" fill="#ebebe4" fill-rule="evenodd" stroke="#26223c" stroke-linecap="round" stroke-width="3"/></svg>