<svg height="21" viewBox="0 0 28 21" width="28" xmlns="http://www.w3.org/2000/svg"><path d="m22.3669971 2s-12.3555351.68849671-14.73429709 2.37116395c-2.37876196 1.68266725-3.5435576 3.44752076-4.51180291 4.89220092-.96824531 1.44468013-.89856552 3.18039373-.89856552 3.18039373s-1.35478383 1.1513909 2.62423617.8895518c3.97902002-.2618392 6.90366985-.7878553 7.58281515-.8387036.6791453-.0508482 2.9086645-.884416 3.4625607 0 .5538961.8844161-2.5689748 3.6297314-.1878179 5.5664199 2.381157 1.9366885 2.434128.6094533 5.278122-4.0715061 2.843994-4.68095933 3.8652078-5.12208742 3.8652078-5.12208742s1.9176211-2.73236171 1.3314053-4.39515723c-.5862157-1.66279553-3.8118637-2.47227595-3.8118637-2.47227595z" fill="#ff715d" fill-rule="evenodd" stroke="#26223c" stroke-linecap="round" stroke-width="3"/></svg>