<svg height="19" viewBox="0 0 29 19" width="29" xmlns="http://www.w3.org/2000/svg"><path d="m11.4134857 10.7813907-2.20573699-.2651523s-6.3623672-1.60541838-6.9633024.550351c-.60093521 2.1557693-1.97339704 3.5194541 1.85156395 4.1554567 3.82496099.6360027 10.23687084 2.2690833 11.72281034 2.2690833.7407787 0 3.5223883-1.3459895 6.6643401-2.2690833 3.1419519-.9230937 4.4889144-4.1554567 4.4889144-4.1554567s1.5712475-8.56210596-1.5135094-8.8924177c-3.4629528 0-2.0313203 6.56771534-2.6205158 6.88864837-.5891956.32093303.2323648-7.43399527-3.5090947-6.29918601s.0272838 7.53469604-.4224465 7.75260434c-.3190856.1546068-.6786467-5.2139016-3.5437873-3.88292811-2.8651405 1.33097348-.3848865 4.97587791-.1053371 6.60267481" fill="#ff715d" fill-rule="evenodd" stroke="#26223c" stroke-linecap="round" stroke-width="3"/></svg>