<svg height="120" viewBox="0 0 62 120" width="62" xmlns="http://www.w3.org/2000/svg"><path d="m29.1132768 29.5969187c1.1928435-.1044743 4.6379569 2.0684877 4.6379569 2.0684877s5.0005042 2.830507 10.5852117 9.2999846c5.5847076 6.4694776 11.9494087 18.0067696 12.4313621 19.1086985s4.8098287 2.7779863 3.0026597 15.6607074c-1.8071691 12.8827211-2.5091583 38.1068251-2.5091583 38.1068251s-1.4508611 4.020654-3.8362492 4.033782c-2.3853881.013127-6.1241214-.193157-7.4143314-3.371174-1.2902099-3.178017-5.3908771-21.0183684-6.5679436-28.7855361s2.6053205-10.286062 1.5507739-13.1040422-4.1436958-7.6622342-10.0827872-11.1859325c-5.9390913-3.5236984-21.35430566-10.022009-26.0138138-18.3677419-4.65950814-8.3457329-2.73461379-17.9162869-1.04058816-26.4726791 1.69402564-8.55639217 2.56416722-9.86222964 2.56416722-9.86222964l1.03329312-2.72606856s3.01736592 4.11691986 7.91753822 4.86016579c4.9001723.74324594 19.8576061.23003743 25.2484832-2.71544182 5.3908771-2.94547926 5.8403253-1.77466376 5.8403253-1.77466376s4.8457884.94390358 3.1217579 5.90158529c-1.7240305 4.9576816-11.4807033 12.2538617-11.4807033 12.2538617s-1.3114634 1.407729-1.5740061 2.4447728" fill="#eae0c7" fill-rule="evenodd" stroke="#26223c" stroke-linecap="round" stroke-width="3"/></svg>