<svg height="52" viewBox="0 0 75 52" width="75" xmlns="http://www.w3.org/2000/svg"><path d="m2 24.4038042s8.1755501 6.1857413 16.2263841 5.5667472c8.050834-.618994 24.7701521-4.6956757 24.7701521-4.6956757s-5.3138917 4.7620946-8.1190975 9.1117636c-2.8052058 4.3496689-7.2538063 6.9686295-6.9351514 7.8495987s3.2150113-.238572 4.760429 1.2993253c1.5454177 1.5378972 2.8768113 3.8947979 1.5454177 5.7360882-1.3313936 1.8412902 6.0535193-3.5601273 12.8308112-7.8379773 6.7772919-4.2778499 24.3707071-19.5646237 24.3707071-19.5646237s5.8343919-7.9714353-2.9239655-13.20924167c-8.7583574-5.23780633-42.2667427-6.55568895-42.2667427-6.55568895s-8.3670443 1.69973193-13.5465422 2.95620814" fill="#eae0c7" fill-rule="evenodd" stroke="#26223c" stroke-linecap="round" stroke-width="3"/></svg>