<svg height="44" viewBox="0 0 30 44" width="30" xmlns="http://www.w3.org/2000/svg"><path d="m14.6102123 2.97959838s-.9070062-2.34151655-3.4396589.21567121c-2.5326527 2.55718775-3.86862699 3.89870222-4.2501078 4.90780603-.38148081 1.0091038-.43055096 5.20143548-1.57895066 7.52356138s-3.38900587 3.9370877-3.34072718 6.1772982c.04827869 2.2402104.32251749 3.1638372 1.26988788 3.8864347.9473704.7225974 2.70993837.2572225 1.06687995 3.3664494-1.64305843 3.1092269.06054622 3.9873451.53225279 4.5785612.47170656.5912161 3.10883117.5575793 4.42264475-.0075188 1.31381357-.5650982 3.46617267-2.6972751 3.24456547.2774046-.2216071 2.9746797-.4641877 6.2406145.1626438 6.9030615.6268316.6624469 11.8215522 4.4618217 13.7950426-1.7562364 1.9734905-6.2180581 1.9390622-30.06100444.9695311-30.50501011s-6.7605997-4.37832333-6.7605997-4.37832333z" fill="#1341d5" fill-rule="evenodd" stroke="#26223c" stroke-linecap="round" stroke-width="3"/></svg>