<svg height="74" viewBox="0 0 57 74" width="57" xmlns="http://www.w3.org/2000/svg"><path d="m55.3744739 8.52498753s-6.5882303-4.86620835-10.7766118-5.56668305-8.3903402-1.30999386-12.8091418-.77959638c-4.4188015.53039749-11.2025702 2.76017318-11.2025702 2.76017318s-5.3427752 2.70159869-8.2434841 4.27355942c-2.90070886 1.5719607-5.85306521 1.6076444-8.67677244 8.4739388-2.82370723 6.8662944-1.35034619 37.4894792-.6751731 40.1272556.6751731 2.6377764.13522243 5.7084524 2.19454733 9.2486506 2.05932489 3.5401983 11.71833811 6.5075794 25.00018541 3.2537897 13.2818474-3.2537897 13.6696729-5.4736912 13.6696729-5.4736912s.4169358-5.8746632.2084679-8.6964924c-.2084679-2.8218291.8562792-7.4802074 2.0319631-10.5809328s7.295697-.7790064 8.5274493-7.6818494c1.2317524-6.902843-7.6878139-8.6994828-5.4974653-20.1967301" fill="#e9d801" fill-rule="evenodd" stroke="#26223c" stroke-linecap="round" stroke-width="3"/></svg>