<svg height="75" viewBox="0 0 48 75" width="48" xmlns="http://www.w3.org/2000/svg"><path d="m34.1782938 1.80600118s-2.5766735 11.40508732-6.483873 20.38788782-14.5149292 27.8621939-15.9979996 30.2645836c-1.4830703 2.4023897-1.4845442 3.1533207-2.95066516 4.7690384-1.46612097 1.6157176-2.50113826 1.6949375-3.07004773 2.8541274s-.4403153 1.5490255-.9222671 3.1363714c-.48195181 1.5873458-2.28153331 4.2019712-2.48787354 6.1515178-.20634022 1.9495467 1.25277992 3.6938585 3.11721121 3.2119067 1.8644313-.4819518 5.34973872-3.4068245 6.28563902-3.7598136.9359003-.3529892 3.3386585-5.0350699 3.4867813-6.604361s-.1805477-3.056783.594702-5.1367661c.7752497-2.0799832 6.3342763-9.5299706 8.5896487-12.7989892 2.2553723-3.2690187 12.3995734-19.0643627 15.2968112-24.4951637 2.8972378-5.4308009 5.598084-12.44636846 6.4064955-16.82999278" fill="#ff715d" fill-rule="evenodd" stroke="#26223c" stroke-linecap="round" stroke-width="3"/></svg>