<svg height="52" viewBox="0 0 71 52" width="71" xmlns="http://www.w3.org/2000/svg"><path d="m9.96031342 9.84911301s-6.6518616-1.46627451-5.64789942-6.32545145 7.9975281 2.30047769 7.9975281 2.30047769.4771849.84597122 1.3036337 2.47330377.133868.61356155 1.9141261 3.27837088c1.7802581 2.6648094 18.0690454 13.1920542 23.2183142 15.8731323 5.1492687 2.681078 23.6666878 10.8219374 28.0252989 13.7846959 4.3586111 2.9627586 2.2073587 4.7118444 1.9214948 5.5415469s-.4471563 4.3116643-5.1701857 3.6162946c-4.7230294-.6953698-27.8640831-14.8532051-31.9456086-17.8240848-4.0815256-2.9708797-17.9634397-14.7929061-19.8088111-16.9757184-1.84537141-2.1828123-9.33736239-1.7171496-10.48616058-3.1692802" fill="#ff715d" fill-rule="evenodd" stroke="#26223c" stroke-width="3"/></svg>