<svg height="71" viewBox="0 0 52 71" width="52" xmlns="http://www.w3.org/2000/svg"><path d="m31.12897 1.75073851c-5.9596228 1.32348157-14.1282505 4.43835363-16.3152161 7.28366946-2.1869657 2.84531583-8.32056148 16.09151643-11.07489502 18.55481963-2.75433354 2.4633033-1.54500367 5.0108075.40800755 7.8634697 1.95301123 2.8526622 7.94109807 3.832296 7.36073277 9.8495597-.5803653 6.0172638.677275 14.685061.7869058 17.941775s3.7754826 3.7641805 6.4733054 3.9263663 16.9694703 4.2511927 21.0026419-2.6465084 1.8474764-14.9068581 3.1579605-20.1244948c1.3104841-5.2176368 5.0808808-15.7845803 6.0353472-18.8745877.9544664-3.0900073 2.3062033-9.511888-.3548875-14.9278774-2.6610908-5.41598948-11.5202797-10.16967305-17.4799025-8.84619149z" fill="#fedfda" fill-rule="evenodd" stroke="#26223c" stroke-linecap="round" stroke-width="3"/></svg>