<svg height="54" viewBox="0 0 39 54" width="39" xmlns="http://www.w3.org/2000/svg"><path d="m7.61379236 16.7594298c-1.66024124 3.9828903-3.97362534 4.3993595-5.24701425 6.8601702-1.27338892 2.4608106.38809426 2.5525326 1.71997723 3.700041s1.11919201 2.4657004 2.16768463 4.6064368c.097868.1998198-.15468195 4.6568249 3.93146353 4.6568249 4.1940099 0 7.677914 1.1846 7.6119035 3.7298427s-2.9973079 8.2656365-2.8061844 9.4246583c.1911235 1.1590219 4.1100224 2.9083526 9.0056883 1.4541763 1.6344554-.4854878 3.7734498-2.1036576 4.0936542-3.8215695.3202043-1.717912-1.9143254-7.861868-1.8222901-8.7530761.1381615-1.3378643.9295202-6.0760377 2.6243018-8.1285042 1.6947816-2.0524666 6.6560587-3.0897383 7.9228004-10.2828988 1.2667418-7.1931605-1.2038565-14.86760437-7.0143171-16.86096845-5.8104605-1.99336408-11.6704172-2.89047091-16.8756318.85407899-5.20521467 3.74454989-3.6517947 8.57789746-5.31203594 12.56078786z" fill="#ff715d" fill-rule="evenodd" stroke="#26223c" stroke-width="3"/></svg>