<svg height="176" viewBox="0 0 39 176" width="39" xmlns="http://www.w3.org/2000/svg"><path d="m17.9713456 2.16438719c2.761374 0 9.4520372 2.20636806 11.930054 6.51975671 2.4780169 4.3133886 8.3359813 13.7868942 6.2453512 31.9730005s-9.2578089 26.3438612-10.5977127 36.4081862c-1.3399039 10.064325 1.3858343 24.0596684-.4426751 31.8536004-1.8285094 7.793933-.3714036 16.040835-1.3858343 20.781972-1.0144308 4.741138-1.6796313 43.531037-1.6796313 43.531037s-1.7342229 1.320737-4.0695518.613566c-2.3353289-.707172-2.4285638-2.03129-2.8964298-3.377742s-6.10362421-60.918476-5.96108125-61.936866c.14254296-1.018391-4.44971614-27.3429082-4.51623618-29.4042378-.06652005-2.0613296-4.41724802-49.6104942-2.20862401-59.6700678 2.20862401-10.05957357 12.82099734-17.29220521 15.58237124-17.29220521z" fill="#1579ec" fill-rule="evenodd" stroke="#26223c" stroke-linecap="round" stroke-width="3"/></svg>