<svg height="118" viewBox="0 0 43 118" width="43" xmlns="http://www.w3.org/2000/svg"><path d="m41.1133261 3.79075703c-1.2349142-2.13022695-3.5300022-1.4849843-6.9179892-.48902601-3.387987.99595828-1.7900081 1.22194757-8.9247247-.99595829-7.1347167-2.21790585-9.3260719.97126-9.3260719.97126s-1.5380856 4.2647761-2.1864155 8.45854467c-.64833 4.1937685-4.93471705 29.5156836-5.69048452 33.0549476-.75576748 3.5392641-3.50345151 18.6058344-4.05731052 24.9971327s-1.54673 24.2568017-1.56525371 28.3845023c-.01852372 4.127701 1.5553744 11.844679 2.64086396 14.546672 1.08548955 2.701992 5.51018699 4.942126 9.91142119 3.027392 4.4012341-1.914735 5.5219187-6.421554 5.5293282-10.519617.0074095-4.098062-1.6029186-11.6563547 3.4911023-23.9956171 5.094021-12.3392624 15.9620384-31.3098598 17.0955344-43.063584" fill="#1579ec" fill-rule="evenodd" stroke="#26223c" stroke-linecap="round" stroke-width="3"/></svg>