<svg height="37" viewBox="0 0 95 37" width="95" xmlns="http://www.w3.org/2000/svg"><path d="m5.32331985 16.5616459s-5.65190858-7.58164573-2.91536571-11.57013181 8.42778206-5.5550687 16.79807406 2.27904891c8.370292 7.8341176 10.7880395 15.1355432 14.7258627 15.9940307s37.9315324-1.9012051 41.6389443-4.2051327c.9584194-.5955985 2.1220352-1.5651561 3.3207039-2.6755214.4073161-.37731-1.4500441-10.29785468 3.7005476-11.20125937.5958868-.58414266.2435828 8.17307887.8076107 7.58705627 2.314701-2.4049645 4.1869264-4.58705627 4.1869264-4.58705627s3.7818165-6.79712444 5.0281005-5.99414529.5066077 5.48493905-.2466961 7.94783066c-.7533039 2.4628916-2.5514693 3.9561908-3.7814044 6.2808689-1.2299352 2.324678-3.4952206 6.9417762-8.2017231 8.846415-4.7065025 1.9046389-12.3585372 4.0379229-19.7864092 5.2945548-7.4278719 1.2566319-27.040582 5.6658447-31.6138395 4.1639089-4.5732576-1.5019358-23.66133215-18.1604673-23.66133215-18.1604673z" fill="#e9d801" fill-rule="evenodd" stroke="#26223c" stroke-linecap="round" stroke-width="3"/></svg>