<svg height="39" viewBox="0 0 38 39" width="38" xmlns="http://www.w3.org/2000/svg"><path d="m2.1392959 23.6646281s-.01978635 1.392959.81598903 4.4970414c.83577539 3.1040825 3.34428873 5.080343 3.60309417 5.819561.25880545.739218 1.93629213 2.6489964 2.60823654 2.5757869.67194442-.0732095 2.81797186.0969531 2.88643256-.9489533.0684608-1.0459064-5.30313724-6.6917432-5.39890317-8.2695067s.67827605-4.3031352 2.32093875-3.9885323c1.64266272.314603 3.26356042 1.165416 3.47725302 2.5769741.2136925 1.4115582 1.9497468.5306699 2.8460684-1.8678313s4.019399-1.3866274 4.9454001-1.0478851c.9260012.3387423 2.2651413.8785139 6.1812555-2.9853643 3.9161142-3.8638783 7.5659041-1.1974699 8.6098319-1.3628837 1.0439278-.1654139-.3059853-3.5175745-.6220828-6.6972835-.3160975-3.17970891 3.7649465-3.09141916-.4384655-5.84607468s-4.3363763-.36921327-11.5061577-2.78116923c-7.1697815-2.41195595-13.86271192-1.83261165-17.57502674 3.95766555-3.71231481 5.79027716-2.57182965 4.19074876-2.89315996 6.38426336" fill="#26223c" fill-rule="evenodd" stroke="#26223c" stroke-linecap="round" stroke-width="3"/></svg>