<svg height="192" viewBox="0 0 46 192" width="46" xmlns="http://www.w3.org/2000/svg"><path d="m43.2699953 1.68744662s-7.044002 4.23442906-14.8081845 4.67982173c-7.0672219.4054115-14.8124008-3.20320917-16.8036792 1.01965159-4.17893431 8.86217486-12.17488461 14.16944346-8.91356537 31.72569096 1.33773188 7.201243 9.30406447 26.899978 12.66157067 38.4375983 4.8279155 16.5904847 5.0546958 24.9090768 3.9499842 27.5604818-1.8729679 4.495287-6.1775938 19.079512-5.3381511 25.953225.8394426 6.873713 3.629863 42.994781 3.8326254 48.016241.2027625 5.021461-.5555744 8.422833-.5555744 8.422833s1.682215 3.069733 4.9445537 2.501011 4.9297126-.976827 5.5759744-3.612321c.6462617-2.635495.1993651-9.928259 1.2155649-18.832819 1.0161997-8.90456 7.100274-50.358136 7.6846201-52.50553s4.2191664-15.1392514 4.2316658-19.2053004-.9049553-33.2333572-.4524776-42.501649c.4524776-9.2682919-.748713-18.2059751-.8593325-20.4696132-.1106196-2.2636381 2.9142309-3.1010967 4.4554047-9.2745415" fill="#d6cfc7" fill-rule="evenodd" stroke="#26223c" stroke-linecap="round" stroke-width="3"/></svg>