<svg height="169" viewBox="0 0 51 169" width="51" xmlns="http://www.w3.org/2000/svg"><path d="m6.17239185 40.6405001c1.40905133 7.5129027 8.37636695 25.513457 12.01361445 32.5258562 3.6372474 7.0123992 8.9655093 11.8233467 9.6264797 15.4667072.6609704 3.6433604-6.1339265 17.1513325 0 27.4496835 6.1339266 10.298351 7.5931362 38.051336 7.5182517 41.213296s.0817616 7.383001.0817616 7.383001 1.1064568 2.011184 3.868014 1.882811c2.7615573-.128374 7.6152959-.530548 6.8106695-3.780383s-1.7850021-5.730714-.8925011-19.031883c.8925011-13.30117 2.472717-40.79601 3.0503975-44.7992744.5776805-4.0032646 1.814039-7.609947-.6181792-16.6969526-2.4322183-9.0870057-5.9304306-30.9881475-13.1865865-48.7495299-7.2561558-17.7613824-3.6647873-26.80514244-9.1040544-31.15386427-2.2381528-1.78941455-9.4213826 1.77889285-12.8395231 3.8161518-4.88878997 2.91378632-11.26407285 4.92871597-10.88407301 8.36490377.64568783 5.8386992 3.14667753 18.5965739 4.55572886 26.1094767z" fill="#d6cfc7" fill-rule="evenodd" stroke="#26223c" stroke-linecap="round" stroke-width="3"/></svg>