<svg height="78" viewBox="0 0 52 78" width="52" xmlns="http://www.w3.org/2000/svg"><path d="m3.13077478 43.1978138c1.94046361 7.2677745 6.41725788 12.4836685 2.88429312 22.4689854s2.82265456 10.1545725 7.5220352 9.4277753c2.7019973-.4178858 11.8936788 1.8288953 19.7076599 1.0437682 5.7762883-.5803853 10.8102021-3.7928205 11.8588513-5.9006603 1.4495197-2.9136107-1.3002088-8.7854021-2.0678118-15.1939786-.5389347-4.4994669.8131982-9.9599257 1.3429585-11.84589 1.2842961-4.5721372 6.9680042-5.9913906 5.6760569-10.123588-.9192322-2.9400956-1.3124458-4.2707087-1.6841736-10.1246006-.1507221-2.37354.6301643-7.7016523-.6204164-11.0464889-4.3349036-11.59424976-8.8636872-10.63392102-14.902718-10.06159745-6.0390309.57232357-16.8640693 2.50497045-25.13165791 11.14566275-8.26758866 8.6406923-6.52554082 22.9428377-4.58507721 30.2106122z" fill="#ff715d" fill-rule="evenodd" stroke="#26223c" stroke-linecap="round" stroke-width="3"/></svg>