<?xml version="1.0" encoding="utf-8"?><svg width="464" height="433" viewBox="0 0 464 433" xmlns="http://www.w3.org/2000/svg" xmlns:xlink="http://www.w3.org/1999/xlink"><svg id="clear-view-escapes" data-name="Layer 1" width="142.4" height="59.53" viewBox="0 0 142.4 59.53" x="200" xmlns="http://www.w3.org/2000/svg"><defs><style>.aacls-1{fill:#fff}</style></defs><title>clear-view-escapes</title><path class="aacls-1" d="M19.5 27.52v4.75H5.93v5.51h12.45v4.39H5.93v6.3h13.85v4.75H.28v-25.7H19.5zM27.36 48.59a3 3 0 0 0 .88 1 3.78 3.78 0 0 0 1.24.56 5.84 5.84 0 0 0 1.46.18 5.46 5.46 0 0 0 1.13-.13 3.86 3.86 0 0 0 1.08-.4 2.47 2.47 0 0 0 .85-.75 1.89 1.89 0 0 0 .32-1.13 1.91 1.91 0 0 0-1.53-1.73 30.59 30.59 0 0 0-4.3-1.19q-1.12-.25-2.18-.59a7.38 7.38 0 0 1-1.89-.9 4.35 4.35 0 0 1-1.33-1.4 4 4 0 0 1-.5-2.07 5.6 5.6 0 0 1 .7-3 5.16 5.16 0 0 1 1.85-1.82 8.13 8.13 0 0 1 2.59-.94 15.92 15.92 0 0 1 3-.27 14.79 14.79 0 0 1 2.93.29 7.77 7.77 0 0 1 2.54 1 5.83 5.83 0 0 1 1.8 1.88 6.11 6.11 0 0 1 .89 2.82H34a2.24 2.24 0 0 0-1.12-2 5.1 5.1 0 0 0-2.37-.52 8.77 8.77 0 0 0-.94.05 3.15 3.15 0 0 0-.92.23 1.91 1.91 0 0 0-.7.52 1.38 1.38 0 0 0-.29.92 1.4 1.4 0 0 0 .5 1.12 3.88 3.88 0 0 0 1.31.7 16.38 16.38 0 0 0 1.85.49l2.18.49a21.57 21.57 0 0 1 2.18.61 7.2 7.2 0 0 1 1.89 1 4.63 4.63 0 0 1 1.33 1.48 4.34 4.34 0 0 1 .5 2.18 5.65 5.65 0 0 1-2.66 5.07A7.9 7.9 0 0 1 34 53.37a15.9 15.9 0 0 1-3.11.31 15.36 15.36 0 0 1-3.17-.32A8.35 8.35 0 0 1 25 52.27a6.17 6.17 0 0 1-2-2 6.25 6.25 0 0 1-.85-3.11H27a2.8 2.8 0 0 0 .36 1.43zM51.27 38a3.59 3.59 0 0 0-2.05.56A4.45 4.45 0 0 0 47.87 40a6.23 6.23 0 0 0-.74 1.94 10.54 10.54 0 0 0-.21 2.06 10.11 10.11 0 0 0 .21 2 6.32 6.32 0 0 0 .7 1.89 4 4 0 0 0 1.31 1.39 3.61 3.61 0 0 0 2 .54 3.75 3.75 0 0 0 2.83-1 4.86 4.86 0 0 0 1.24-2.75h4.93a8.43 8.43 0 0 1-2.88 5.65 9.29 9.29 0 0 1-6.08 1.94 10.16 10.16 0 0 1-3.83-.7 8.49 8.49 0 0 1-3-2 8.92 8.92 0 0 1-1.91-3 10.42 10.42 0 0 1-.68-3.83 12.4 12.4 0 0 1 .63-4 9 9 0 0 1 1.9-3.13 8.49 8.49 0 0 1 3-2.1 10.15 10.15 0 0 1 4-.76 11.63 11.63 0 0 1 3.19.43 8.49 8.49 0 0 1 2.73 1.31 6.79 6.79 0 0 1 2.83 5.31h-5A3.43 3.43 0 0 0 51.27 38zM62.82 40.33a5.93 5.93 0 0 1 .9-3 6.13 6.13 0 0 1 2-1.91 8.83 8.83 0 0 1 2.75-1 15.71 15.71 0 0 1 3.08-.31 20.85 20.85 0 0 1 2.84.2 8.72 8.72 0 0 1 2.63.77A5.18 5.18 0 0 1 79 36.67a4.47 4.47 0 0 1 .76 2.72v9.68a19.49 19.49 0 0 0 .14 2.41 4.34 4.34 0 0 0 .5 1.73h-5.19a6.77 6.77 0 0 1-.21-.88 7.44 7.44 0 0 1-.13-.92A6.64 6.64 0 0 1 72 53.17a11.55 11.55 0 0 1-3.38.5 9.1 9.1 0 0 1-2.48-.32 5.68 5.68 0 0 1-2-1 4.69 4.69 0 0 1-1.35-1.73 5.84 5.84 0 0 1-.49-2.48 5.42 5.42 0 0 1 .56-2.61 4.66 4.66 0 0 1 1.44-1.64 6.44 6.44 0 0 1 2-.92 21.75 21.75 0 0 1 2.29-.49q1.15-.18 2.27-.29a13.74 13.74 0 0 0 2-.32 3.43 3.43 0 0 0 1.37-.63 1.38 1.38 0 0 0 .4-1.24 2.72 2.72 0 0 0-.27-1.31 2 2 0 0 0-.72-.69 2.86 2.86 0 0 0-1-.36 8.61 8.61 0 0 0-1.28-.09 3.88 3.88 0 0 0-2.37.65 2.89 2.89 0 0 0-1 2.16h-5.17zm11.8 3.78a2.28 2.28 0 0 1-.81.45 8.28 8.28 0 0 1-1 .27c-.41.07-.81.17-1.2.17s-.82.11-1.22.18a9.24 9.24 0 0 0-1.13.29 3.34 3.34 0 0 0-1 .49 2.3 2.3 0 0 0-.67.77 2.49 2.49 0 0 0-.25 1.19 2.4 2.4 0 0 0 .25 1.15 1.93 1.93 0 0 0 .68.74 2.9 2.9 0 0 0 1 .38 6.48 6.48 0 0 0 1.19.11 4.51 4.51 0 0 0 2.34-.5 3.36 3.36 0 0 0 1.22-1.21 3.87 3.87 0 0 0 .49-1.42 10.06 10.06 0 0 0 .12-1.17v-1.89zM88.56 34.6V37h.07A5.62 5.62 0 0 1 91 34.78a7.29 7.29 0 0 1 3.17-.68 8.07 8.07 0 0 1 3.78.83 7.82 7.82 0 0 1 2.63 2.2 9.31 9.31 0 0 1 1.55 3.19 14.19 14.19 0 0 1 .5 3.8 12.82 12.82 0 0 1-.5 3.6 9.18 9.18 0 0 1-1.53 3.06 7.58 7.58 0 0 1-2.6 2.11 7.69 7.69 0 0 1-3.58.79 7.23 7.23 0 0 1-3.18-.7 6 6 0 0 1-2.39-2.07h-.04v8.82H83.7V34.6h4.86zm6.64 14.76A4.09 4.09 0 0 0 96.56 48a5.43 5.43 0 0 0 .74-1.89 11.19 11.19 0 0 0 .22-2.2 10.32 10.32 0 0 0-.23-2.2 5.86 5.86 0 0 0-.77-1.92 4.33 4.33 0 0 0-1.39-1.37 3.87 3.87 0 0 0-2.08-.42 3.94 3.94 0 0 0-2.11.52 4.22 4.22 0 0 0-1.37 1.35 5.6 5.6 0 0 0-.74 1.91 11.3 11.3 0 0 0-.2 2.22 10.31 10.31 0 0 0 .23 2.2 5.69 5.69 0 0 0 .76 1.8 4.36 4.36 0 0 0 5.58 1.36zM111.15 48.75a5.24 5.24 0 0 0 6 .34 3.21 3.21 0 0 0 1.37-1.64H123a8.54 8.54 0 0 1-3.31 4.79 9.75 9.75 0 0 1-5.4 1.44 10.6 10.6 0 0 1-4-.7 8.22 8.22 0 0 1-3-2 9 9 0 0 1-1.89-3.09 11.34 11.34 0 0 1-.67-4 10.84 10.84 0 0 1 .68-3.89 9 9 0 0 1 4.95-5.18 9.63 9.63 0 0 1 3.87-.76 8.84 8.84 0 0 1 4.14.92 8.26 8.26 0 0 1 2.9 2.46A10.14 10.14 0 0 1 123 41a13.14 13.14 0 0 1 .36 4.14H109.9a5.16 5.16 0 0 0 1.25 3.61zm5.78-9.75a3.59 3.59 0 0 0-2.79-1 4.45 4.45 0 0 0-2 .41 3.89 3.89 0 0 0-1.3 1 3.77 3.77 0 0 0-.68 1.3 5.83 5.83 0 0 0-.23 1.22h8.31a5.91 5.91 0 0 0-1.31-2.93zM130.64 48.59a3 3 0 0 0 .88 1 3.78 3.78 0 0 0 1.24.56 5.83 5.83 0 0 0 1.46.18 5.46 5.46 0 0 0 1.13-.13 3.86 3.86 0 0 0 1.08-.4 2.47 2.47 0 0 0 .81-.72 1.89 1.89 0 0 0 .32-1.13 1.91 1.91 0 0 0-1.56-1.76 30.55 30.55 0 0 0-4.22-1.19q-1.11-.25-2.18-.59a7.39 7.39 0 0 1-1.89-.9 4.36 4.36 0 0 1-1.33-1.4 4 4 0 0 1-.5-2.07 5.6 5.6 0 0 1 .7-3 5.18 5.18 0 0 1 1.85-1.82 8.13 8.13 0 0 1 2.59-.94 15.91 15.91 0 0 1 3-.27 14.79 14.79 0 0 1 2.93.29 7.77 7.77 0 0 1 2.54 1 5.84 5.84 0 0 1 1.85 1.82 6.11 6.11 0 0 1 .88 2.86h-4.86a2.24 2.24 0 0 0-1.12-2 5.1 5.1 0 0 0-2.37-.52 8.77 8.77 0 0 0-.94.05 3.15 3.15 0 0 0-.92.23 1.9 1.9 0 0 0-.7.52 1.38 1.38 0 0 0-.29.92 1.4 1.4 0 0 0 .5 1.12 3.87 3.87 0 0 0 1.31.7 16.33 16.33 0 0 0 1.85.49l2.1.51a21.57 21.57 0 0 1 2.18.61 7.18 7.18 0 0 1 1.89 1 4.63 4.63 0 0 1 1.33 1.48 4.33 4.33 0 0 1 .5 2.18 5.65 5.65 0 0 1-2.68 5.04 7.89 7.89 0 0 1-2.72 1.06 15.9 15.9 0 0 1-3.11.31 15.35 15.35 0 0 1-3.17-.32 8.35 8.35 0 0 1-2.75-1.08 6.18 6.18 0 0 1-2-2 6.25 6.25 0 0 1-.85-3.11h4.86a2.8 2.8 0 0 0 .38 1.42zM23.64 6.29a6.36 6.36 0 0 0-.55-1.43 4 4 0 0 0-.9-1.12A4 4 0 0 0 20.9 3a5.11 5.11 0 0 0-1.71-.26 5 5 0 0 0-2.46.58A4.84 4.84 0 0 0 15 4.85a6.93 6.93 0 0 0-1 2.19 10.16 10.16 0 0 0 0 5 6.92 6.92 0 0 0 1 2.19 4.83 4.83 0 0 0 1.69 1.54 5 5 0 0 0 2.46.57A4.44 4.44 0 0 0 21 16a4.12 4.12 0 0 0 1.38-1 4.71 4.71 0 0 0 .9-1.49 7.13 7.13 0 0 0 .43-1.83h3.05a8.48 8.48 0 0 1-.69 2.93 7.17 7.17 0 0 1-1.59 2.29 7 7 0 0 1-2.35 1.49 8.14 8.14 0 0 1-3 .53 8.43 8.43 0 0 1-3.59-.74 7.88 7.88 0 0 1-2.69-2 9 9 0 0 1-1.69-3 11 11 0 0 1-.59-3.63 11 11 0 0 1 .59-3.6 9 9 0 0 1 1.69-3 8 8 0 0 1 2.69-2 8.29 8.29 0 0 1 3.65-.76A9.46 9.46 0 0 1 22 .6a7.31 7.31 0 0 1 2.34 1.2A6.23 6.23 0 0 1 26 3.72a6.66 6.66 0 0 1 .78 2.58h-3.14zM29.31.62h2.85v17.85h-2.85V.62zM37.49 12.74a5 5 0 0 0 .21 1.45 3.57 3.57 0 0 0 .64 1.23 3.06 3.06 0 0 0 1.08.84 3.54 3.54 0 0 0 1.55.31A3.42 3.42 0 0 0 43 16a3.17 3.17 0 0 0 1.14-1.61h2.7a5.36 5.36 0 0 1-2.1 3.26 5.71 5.71 0 0 1-1.74.85 7 7 0 0 1-2 .29 6.85 6.85 0 0 1-2.7-.5 5.58 5.58 0 0 1-2-1.4 5.93 5.93 0 0 1-1.3-2.12 8.74 8.74 0 0 1-.36-2.77 7.79 7.79 0 0 1 .44-2.61 6.68 6.68 0 0 1 1.25-2.18 5.86 5.86 0 0 1 4.56-2 5.8 5.8 0 0 1 2.74.64 6 6 0 0 1 2 1.69 6.84 6.84 0 0 1 1.17 2.39 7.42 7.42 0 0 1 .2 2.81h-9.5zm6.65-1.88a4.61 4.61 0 0 0-.29-1.3 3.47 3.47 0 0 0-.65-1.09 3.23 3.23 0 0 0-1-.75 3 3 0 0 0-1.31-.29 3.42 3.42 0 0 0-1.36.26 3.11 3.11 0 0 0-1.05.73 3.59 3.59 0 0 0-.7 1.09 3.78 3.78 0 0 0-.29 1.35h6.65zM60 15.59a1.51 1.51 0 0 0 .14.75.58.58 0 0 0 .54.23H61a1.85 1.85 0 0 0 .4 0v2l-.4.04-.49.11-.5.08h-.43a2.75 2.75 0 0 1-1.45-.35 1.74 1.74 0 0 1-.75-1.23 5 5 0 0 1-2.09 1.2 8.22 8.22 0 0 1-2.39.38 5.86 5.86 0 0 1-1.68-.24 4.38 4.38 0 0 1-1.41-.7 3.35 3.35 0 0 1-1-1.18 3.62 3.62 0 0 1-.35-1.68 3.84 3.84 0 0 1 .44-2 3.24 3.24 0 0 1 1.15-1.18 5.21 5.21 0 0 1 1.6-.61q.89-.19 1.79-.29a14.67 14.67 0 0 1 1.48-.21 6.86 6.86 0 0 0 1.24-.21 1.9 1.9 0 0 0 .84-.37 1.27 1.27 0 0 0 .31-.94 1.46 1.46 0 0 0-.26-.9 1.77 1.77 0 0 0-.65-.54 2.82 2.82 0 0 0-.86-.25 6.94 6.94 0 0 0-.9-.06 3.58 3.58 0 0 0-2 .5 2 2 0 0 0-.87 1.55h-2.83a4.29 4.29 0 0 1 .6-2.08 4.14 4.14 0 0 1 1.34-1.33 5.48 5.48 0 0 1 1.84-.7 10.94 10.94 0 0 1 2.1-.2 8.85 8.85 0 0 1 1.88.2 5.34 5.34 0 0 1 1.65.62 3.61 3.61 0 0 1 1.19 1.16A3.19 3.19 0 0 1 60 8.94v6.65zM57.14 12a3.45 3.45 0 0 1-1.6.51q-1 .09-1.9.26a6.12 6.12 0 0 0-.87.21 2.63 2.63 0 0 0-.75.38 1.65 1.65 0 0 0-.51.63 2.14 2.14 0 0 0-.19.94 1.19 1.19 0 0 0 .27.8 2 2 0 0 0 .66.51 3.08 3.08 0 0 0 .85.26 5.3 5.3 0 0 0 .84.07 4.6 4.6 0 0 0 1-.12A3.4 3.4 0 0 0 56 16a2.73 2.73 0 0 0 .81-.76 1.93 1.93 0 0 0 .33-1.14V12zM63.06 5.54h2.68V8h.05a2.88 2.88 0 0 1 .49-1 4.73 4.73 0 0 1 .88-.91 4.4 4.4 0 0 1 1.14-.66 3.41 3.41 0 0 1 1.28-.25 6.21 6.21 0 0 1 .69 0h.39V8L70 7.93a5.06 5.06 0 0 0-.61 0 3.28 3.28 0 0 0-1.36.29 3.13 3.13 0 0 0-1.09.78 4.16 4.16 0 0 0-.75 1.39 6 6 0 0 0-.27 1.9v6.15h-2.86V5.54zM77.19.62h3.25l4.48 14.13H85L89.54.62h3.17l-6.1 17.85h-3.47zM94.42.62h2.85v2.7h-2.85V.62zm0 4.93h2.85v12.92h-2.85V5.54zM102.59 12.74a5 5 0 0 0 .21 1.45 3.57 3.57 0 0 0 .64 1.23 3.06 3.06 0 0 0 1.08.84 3.54 3.54 0 0 0 1.55.31 3.42 3.42 0 0 0 2-.54 3.18 3.18 0 0 0 1.14-1.61h2.7a5.36 5.36 0 0 1-2.1 3.26 5.71 5.71 0 0 1-1.74.85 7 7 0 0 1-2 .29 6.85 6.85 0 0 1-2.7-.5 5.58 5.58 0 0 1-2-1.4 5.93 5.93 0 0 1-1.22-2.15 8.73 8.73 0 0 1-.41-2.77 7.77 7.77 0 0 1 .44-2.61 6.69 6.69 0 0 1 1.25-2.18 5.86 5.86 0 0 1 4.56-2 5.79 5.79 0 0 1 2.74.64 6 6 0 0 1 2 1.69 6.85 6.85 0 0 1 1.16 2.41 7.42 7.42 0 0 1 .19 2.81h-9.5zm6.65-1.88a4.6 4.6 0 0 0-.29-1.3 3.48 3.48 0 0 0-.65-1.09 3.22 3.22 0 0 0-1-.75 3 3 0 0 0-1.3-.28 3.43 3.43 0 0 0-1.36.26 3.12 3.12 0 0 0-1 .73 3.6 3.6 0 0 0-.7 1.09 3.8 3.8 0 0 0-.29 1.35h6.65zM113.1 5.54h3l2.53 9.65 2.42-9.65H124l2.33 9.65L129 5.54h2.9l-4 12.93h-2.93l-2.4-9.6-2.37 9.6h-3z" transform="translate(-.28 -.19)"/></svg><svg id="comment" data-name="Layer 1" width="64" height="64" viewBox="0 0 64 64" x="399.4" y="128" xmlns="http://www.w3.org/2000/svg"><defs><style>.abcls-1{fill:#2f5572}</style></defs><title>comment</title><path class="abcls-1" d="M.72.08A.67.67 0 0 0 0 .8v46.48a.72.72 0 0 0 .72.72H48l16 16V.72a.67.67 0 0 0-.72-.72H.8z"/></svg><svg id="facebook" data-name="Layer 1" width="21.23" height="42.01" viewBox="0 0 21.23 42.01" x="122.78" y="318" xmlns="http://www.w3.org/2000/svg"><defs><style>.accls-1{fill:#fff}</style></defs><title>facebook</title><path class="accls-1" d="M21.23.31V7H17.4a3.55 3.55 0 0 0-2.85.91 4.26 4.26 0 0 0-.74 2.72v4.77H21l-1 7.47h-6.19V42H6.27V22.85H0v-7.47h6.27V9.85q0-4.69 2.55-7.28A9 9 0 0 1 15.63 0a39.57 39.57 0 0 1 5.6.31z"/></svg><svg id="fire" data-name="Layer 1" width="56" height="64" viewBox="0 0 56 64" x="342.4" y="215" xmlns="http://www.w3.org/2000/svg"><defs><style>.adcls-1{fill:#d4953d}</style></defs><title>Untitled-2</title><path class="adcls-1" d="M16 0C24 16 0 24 0 40s16 24 16 24C8.16 48.16 32 40 32 24S16 0 16 0zm24 24c8 16-16 24-16 40h24c3.2 0 8-4 8-16 0-16-16-24-16-24z"/></svg><svg id="globe" data-name="Layer 1" width="64" height="64" viewBox="0 0 64 64" x="399.4" y="64" xmlns="http://www.w3.org/2000/svg"><defs><style>.aecls-1{fill:#d4953f}</style></defs><title>globe</title><path class="aecls-1" d="M32 0a32 32 0 1 0 32 32A32 32 0 0 0 32 0zm0 8a23.75 23.75 0 0 1 7.52 1.52c-1.68 1.6-3.6 3-3.28 4.48s5.52 1 5.52 4c0 2.16-3.36 2.8-1 5.28 2.8 2.8-5.12 7.84-5.28 11.52-.24 6.64 6.72 7.76 12.24 7.76 3.36 0 4.24 1.6 4 3.52a24.07 24.07 0 0 1-19.76 10 22.94 22.94 0 0 1-8.48-1.76c1.76-3.52-2.24-10.48-6-12.72-1.84-1.84-5.76-1.12-8-2a23.49 23.49 0 0 1-1.52-6.72 1.42 1.42 0 0 1 1.28-.72c1.52 0 3.6 3 4.72 2.72 1.4-.32-5.96-10.48-2.52-12.48 1.6-1 4.8 3.12 3.76-1.28-1-4.08 2.88-2.24 5.28-3.28 2.08-.88 3.6-3.28 1-4.72a8.55 8.55 0 0 1-1.76-1.52A23.75 23.75 0 0 1 32 8.08V8zm18.48 8.72A26.46 26.46 0 0 1 54 22.48v.24a11.78 11.78 0 0 1-1.76 1.76C50 26.72 49.68 22.8 48.72 22c-1-1-4.8.16-5.28-1-.56-1.48 4-3.4 7.04-4.28z"/></svg><svg height="75" viewBox="0 0 48 75" width="48" id="insta-girl--arm_L" x="177" y="229" xmlns="http://www.w3.org/2000/svg"><path d="M34.178 1.806s-2.576 11.405-6.484 20.388S13.18 50.056 11.696 52.458c-1.483 2.403-1.484 3.154-2.95 4.77-1.466 1.615-2.501 1.694-3.07 2.854s-.44 1.549-.923 3.136c-.482 1.587-2.281 4.202-2.487 6.152-.207 1.95 1.252 3.693 3.117 3.211 1.864-.482 5.35-3.406 6.285-3.76.936-.352 3.34-5.034 3.487-6.604s-.18-3.057.595-5.137c.775-2.08 6.334-9.53 8.59-12.798 2.255-3.27 12.4-19.065 15.296-24.496 2.898-5.43 5.598-12.446 6.407-16.83" fill="#ff715d" fill-rule="evenodd" stroke="#26223c" stroke-linecap="round" stroke-width="3"/></svg><svg height="52" viewBox="0 0 71 52" width="71" id="insta-girl--arm_R" y="318" xmlns="http://www.w3.org/2000/svg"><path d="M9.96 9.85S3.308 8.382 4.312 3.523s7.998 2.3 7.998 2.3.477.846 1.304 2.473.133.614 1.914 3.279c1.78 2.665 18.069 13.192 23.218 15.873 5.15 2.681 23.667 10.822 28.025 13.785 4.359 2.962 2.208 4.711 1.922 5.541s-.447 4.312-5.17 3.616c-4.723-.695-27.864-14.853-31.946-17.824-4.082-2.97-17.963-14.793-19.809-16.975-1.845-2.183-9.337-1.717-10.486-3.17" fill="#ff715d" fill-rule="evenodd" stroke="#26223c" stroke-width="3"/></svg><svg height="71" viewBox="0 0 52 71" width="52" id="insta-girl--body" x="342.4" y="74" xmlns="http://www.w3.org/2000/svg"><path d="M31.129 1.75c-5.96 1.324-14.128 4.44-16.315 7.284-2.187 2.846-8.32 16.092-11.075 18.555-2.754 2.464-1.545 5.011.408 7.864 1.953 2.852 7.941 3.832 7.36 9.85-.58 6.017.678 14.684.788 17.941s3.775 3.764 6.473 3.926 16.97 4.252 21.002-2.646 1.848-14.907 3.158-20.125c1.31-5.217 5.081-15.784 6.036-18.874.954-3.09 2.306-9.512-.355-14.928S37.089.427 31.129 1.75z" fill="#fedfda" fill-rule="evenodd" stroke="#26223c" stroke-linecap="round" stroke-width="3"/></svg><svg height="16" viewBox="0 0 29 16" width="29" id="insta-girl--foot_L" x="119" y="169" xmlns="http://www.w3.org/2000/svg"><path d="M20.879 3.643c-2.367 0-1.415-1.296-5.352-.34-3.936.956-7.092-1.575-9.472-1.279-2.38.297-4.016.876-4.053 2.84s.503 1.988 1.371 2.82c.868.832 11.034 3.567 12.042 4.198s3.846 2.013 5.7 2.402 4.833.327 5.252-1.672c.42-1.999.069-5.467.069-5.467s-3.19-3.502-5.557-3.502z" fill="#ebebe4" fill-rule="evenodd" stroke="#26223c" stroke-linecap="round" stroke-width="3"/></svg><svg height="16" viewBox="0 0 29 16" width="29" id="insta-girl--foot_R" x="46" y="176" xmlns="http://www.w3.org/2000/svg"><path d="M20.879 3.643c-2.367 0-1.415-1.296-5.352-.34-3.936.956-7.092-1.575-9.472-1.279-2.38.297-4.016.876-4.053 2.84s.503 1.988 1.371 2.82c.868.832 11.034 3.567 12.042 4.198s3.846 2.013 5.7 2.402 4.833.327 5.252-1.672c.42-1.999.069-5.467.069-5.467s-3.19-3.502-5.557-3.502z" fill="#ebebe4" fill-rule="evenodd" stroke="#26223c" stroke-linecap="round" stroke-width="3"/></svg><svg height="49" viewBox="0 0 40 49" width="40" id="insta-girl--hair" x="300" y="229" xmlns="http://www.w3.org/2000/svg"><path d="M2.138 16.403c-.122 2.156 1.32 3.65 3.215 5.21 1.895 1.561 3.656 7.303 4.952 11.611 1.296 4.308-1.037 11.371-1.037 11.371s12.31 4.262 18.575.59c6.266-3.67 8.828-8.262 8.828-8.262s1.84-7.723 1.056-12.43-1.995-12.786-5.041-16.15c-3.046-3.362-9.248-6.512-16.014-5.972-2.725.218-8.826.789-12.196 4.952-2.852 3.523-2.268 7.84-2.338 9.08z" fill="#26223c" fill-rule="evenodd" stroke="#26223c" stroke-width="3"/></svg><svg height="54" viewBox="0 0 39 54" width="39" id="insta-girl--head" x="34" y="370" xmlns="http://www.w3.org/2000/svg"><path d="M7.614 16.76c-1.66 3.982-3.974 4.399-5.247 6.86-1.274 2.46.388 2.552 1.72 3.7s1.119 2.465 2.167 4.606c.098.2-.154 4.657 3.932 4.657 4.194 0 7.678 1.185 7.612 3.73s-2.998 8.265-2.806 9.424c.19 1.16 4.11 2.909 9.005 1.455 1.635-.486 3.774-2.104 4.094-3.822.32-1.718-1.914-7.862-1.822-8.753.138-1.338.93-6.076 2.624-8.129 1.695-2.052 6.656-3.09 7.923-10.282 1.267-7.194-1.204-14.868-7.015-16.861-5.81-1.994-11.67-2.89-16.875.854s-3.652 8.578-5.312 12.56z" fill="#ff715d" fill-rule="evenodd" stroke="#26223c" stroke-width="3"/></svg><svg height="176" viewBox="0 0 39 176" width="39" id="insta-girl--leg_R" x="46" xmlns="http://www.w3.org/2000/svg"><path d="M17.971 2.164c2.762 0 9.452 2.207 11.93 6.52 2.478 4.314 8.336 13.787 6.246 31.973s-9.258 26.344-10.598 36.408c-1.34 10.065 1.386 24.06-.443 31.854-1.828 7.794-.371 16.04-1.385 20.782-1.015 4.741-1.68 43.53-1.68 43.53s-1.734 1.322-4.07.615c-2.335-.708-2.428-2.032-2.896-3.378S8.97 109.549 9.114 108.53c.142-1.018-4.45-27.343-4.516-29.404-.067-2.062-4.418-49.61-2.209-59.67C4.598 9.397 15.21 2.164 17.971 2.164z" fill="#1579ec" fill-rule="evenodd" stroke="#26223c" stroke-linecap="round" stroke-width="3"/></svg><svg height="90" viewBox="0 0 22 90" width="22" id="insta-girl--lower_leg_L" x="305" y="59.53" xmlns="http://www.w3.org/2000/svg"><path d="M2.151 3.56c0 2.334 5.277 62.611 6.719 70.757 1.442 8.146.808 8.54 1.296 10.113.488 1.573 2.218 3.21 3.14 3.428.922.217 3.474-.273 4.07-.942.596-.67.274-26.94 1.03-29.66s1.82-43.38.91-45.656c-.91-2.275 1.312-8.676-.314-9.499" fill="#1579ec" fill-rule="evenodd" stroke="#26223c" stroke-linecap="round" stroke-width="3"/></svg><svg height="31" viewBox="0 0 16 31" width="16" id="insta-girl--phone" x="277" y="370" xmlns="http://www.w3.org/2000/svg"><path d="M3.748 6.963C2.783 7.503 2 8.844 2 9.943V28.26c0 1.105.791 1.568 1.748 1.046l8.015-4.373c.965-.527 1.748-1.849 1.748-2.949V3.495c0-1.101-.773-1.562-1.748-1.016z" fill="#ebebe4" fill-rule="evenodd" stroke="#26223c" stroke-width="3"/></svg><svg height="37" viewBox="0 0 20 37" width="20" id="insta-girl--sleeve_L" x="95" y="192" xmlns="http://www.w3.org/2000/svg"><path d="M17.801 4.703c-1.508-2.724-3.91-2.775-7.68-1.173-3.768 1.602-6.13 17.973-6.836 22.969-.706 4.995-1.113 5.803-1.113 5.803s4.331 4.336 10.702 2.561c2.53-1.194 5.338-16.018 5.338-16.018" fill="#fedfda" fill-rule="evenodd" stroke="#26223c" stroke-linecap="round" stroke-width="3"/></svg><svg height="21" viewBox="0 0 35 21" width="35" id="insta-girl--sleeve_R" x="305" y="149.53" xmlns="http://www.w3.org/2000/svg"><path d="M32.515 10.83c-2.208-2.136-18.544-7.087-20.127-7.476-1.584-.39-5.705-1.621-5.705-1.621s-2.957 1.545-3.996 4.13c-1.038 2.585 0 5.513 0 5.513s10.448 3.962 13.642 4.637c3.194.675 11.353 3.73 13.85 2.387s4.544-5.432 2.336-7.57z" fill="#fedfda" fill-rule="evenodd" stroke="#26223c" stroke-width="3"/></svg><svg height="118" viewBox="0 0 43 118" width="43" id="insta-girl--upper_leg_L" x="262" y="59.53" xmlns="http://www.w3.org/2000/svg"><path d="M41.113 3.79c-1.235-2.13-3.53-1.484-6.918-.488-3.388.996-1.79 1.222-8.924-.996-7.135-2.218-9.326.971-9.326.971s-1.539 4.265-2.187 8.459c-.648 4.193-4.935 29.515-5.69 33.055-.756 3.539-3.504 18.605-4.058 24.997S2.464 94.044 2.445 98.172C2.427 102.3 4 110.017 5.085 112.72c1.086 2.702 5.511 4.942 9.912 3.027 4.402-1.915 5.522-6.421 5.53-10.52.007-4.097-1.603-11.656 3.49-23.995 5.095-12.34 15.963-31.31 17.096-43.064" fill="#1579ec" fill-rule="evenodd" stroke="#26223c" stroke-linecap="round" stroke-width="3"/></svg><svg id="instagram" data-name="Layer 1" width="42.01" height="42.01" viewBox="0 0 42.01 42.01" x="144.01" y="318" xmlns="http://www.w3.org/2000/svg"><defs><style>.ascls-1{fill:#fff}</style></defs><title>instagram</title><path class="ascls-1" d="M37.25 35.49V17.77h-3.69a11.77 11.77 0 0 1 .57 3.58 12.12 12.12 0 0 1-1.75 6.36 12.76 12.76 0 0 1-4.76 4.59 13.13 13.13 0 0 1-6.56 1.7 12.78 12.78 0 0 1-9.19-3.71 12 12 0 0 1-3.83-9 11.77 11.77 0 0 1 .49-3.56H4.68v17.76a1.63 1.63 0 0 0 1.6 1.67h29.3a1.63 1.63 0 0 0 1.17-.47 1.59 1.59 0 0 0 .5-1.2zm-7.77-14.57A7.75 7.75 0 0 0 27 15.14a8.28 8.28 0 0 0-6-2.4 8.25 8.25 0 0 0-5.91 2.39 7.75 7.75 0 0 0-2.47 5.78 7.75 7.75 0 0 0 2.47 5.79A8.25 8.25 0 0 0 21 29.1a8.28 8.28 0 0 0 6-2.4 7.75 7.75 0 0 0 2.48-5.78zm7.76-9.84V6.56a1.84 1.84 0 0 0-.54-1.31 1.8 1.8 0 0 0-1.31-.56h-4.78a1.8 1.8 0 0 0-1.31.56 1.84 1.84 0 0 0-.54 1.31v4.52A1.87 1.87 0 0 0 30.6 13h4.8a1.87 1.87 0 0 0 1.85-1.89zM42 5.39v31.23A5.41 5.41 0 0 1 36.62 42H5.39a5.19 5.19 0 0 1-3.8-1.59A5.19 5.19 0 0 1 0 36.62V5.39a5.19 5.19 0 0 1 1.59-3.8A5.19 5.19 0 0 1 5.39 0h31.23a5.19 5.19 0 0 1 3.8 1.59A5.19 5.19 0 0 1 42 5.39z"/></svg><svg id="mail" data-name="Layer 1" width="64" height="48" viewBox="0 0 64 48" x="399.4" y="256" xmlns="http://www.w3.org/2000/svg"><defs><style>.atcls-1{fill:#2f5572}</style></defs><title>mail</title><path class="atcls-1" d="M0 0v8l32 16L64 8V0H0zm0 16v32h64V16L32 32z"/></svg><svg id="rain" data-name="Layer 1" width="64" height="64" viewBox="0 0 64 64" x="399.4" xmlns="http://www.w3.org/2000/svg"><defs><style>.aucls-1{fill:#d4953f}</style></defs><title>rain</title><path class="aucls-1" d="M36 0a20.42 20.42 0 0 0-20 16A16 16 0 0 0 0 32a15.4 15.4 0 0 0 4.27 10.72A11.88 11.88 0 0 1 12 40a10.51 10.51 0 0 1 4.47 1A12 12 0 0 1 28 32a12.06 12.06 0 0 1 11.51 9A11.84 11.84 0 0 1 44 40a11.94 11.94 0 0 1 11 7.52A12.07 12.07 0 0 0 64 36c0-5.2-3.36-10.32-8-12v-4A20 20 0 0 0 36 0zm-9.27 40A4 4 0 0 0 24 44v16a4 4 0 1 0 8 0V44a4 4 0 0 0-4.71-4h-.56zm-16 8A4 4 0 0 0 8 52v8a4 4 0 1 0 8 0v-8a4 4 0 0 0-4.71-4h-.54zm32 0A4 4 0 0 0 40 52v8a4 4 0 1 0 8 0v-8a4 4 0 0 0-4.71-4h-.58z" transform="translate(-.04)"/></svg><svg height="29" viewBox="0 0 35 29" width="35" id="selfie--ankle-l" x="161" y="192" xmlns="http://www.w3.org/2000/svg"><path d="M23.572 3.465C17.279 8.355 2.169 21.578 2.169 21.578s-.614 1.91.501 3.361c1.116 1.451 3.97 2.903 5.41 1.93 1.441-.974 20.09-14.018 20.09-14.018l4.408-3.414s-2.714-10.861-9.006-5.972z" fill="#ff715d" fill-rule="evenodd" stroke="#26223c" stroke-linecap="round" stroke-width="3"/></svg><svg height="34" viewBox="0 0 14 34" width="14" id="selfie--ankle-r" x="327" y="59.53" xmlns="http://www.w3.org/2000/svg"><path d="M2.067 3.265s-.277 23.809.295 25.798c.572 1.989 3.35 3.305 4.653 3.383 1.302.078 3.239-.865 3.459-4.065.22-3.2 2.195-25.235 1.097-26.381" fill="#ff715d" fill-rule="evenodd" stroke="#26223c" stroke-linecap="round" stroke-width="3"/></svg><svg height="49" viewBox="0 0 33 49" width="33" id="selfie--arm-l" x="73" y="370" xmlns="http://www.w3.org/2000/svg"><path d="M3.795 2c2.511 1.282 3.372-.874 10.852 5.749 7.48 6.622 5.024 13.327 7.466 18.824s7.62 10.832 8.331 11.584c.711.753 1.198 11.128-5.242 8.039-6.439-3.09-10.268-8.518-12.124-11.694-1.856-3.176-8.442-13.61-8.442-13.61s-3.316-5.35-2.51-10.007" fill="#e9d801" fill-rule="evenodd" stroke="#26223c" stroke-linecap="round" stroke-width="3"/></svg><svg height="89" viewBox="0 0 31 89" width="31" id="selfie--arm-r" y="229" xmlns="http://www.w3.org/2000/svg"><path d="M26.89 2c-1.174.41-9.807 4.128-12.752 14.708-2.946 10.58 1.296 10.052-1.397 27.228s-8.03 31.829-8.03 31.829l-1.892 4.764s-1.588 1.866-.342 4.496c1.246 2.63 5.636 1.683 5.636 1.683s4.972-6.69 7.866-13.805c2.895-7.116 7.022-17.723 8.736-24.99 1.715-7.267 3.666-22.974 3.666-22.974l.91-2.67" fill="#e9d801" fill-rule="evenodd" stroke="#26223c" stroke-linecap="round" stroke-width="3"/></svg><svg height="39" viewBox="0 0 35 39" width="35" id="selfie--face" x="258.77" y="318" xmlns="http://www.w3.org/2000/svg"><path d="M16.81 35.494s3.463 2.527 8.482.764c5.018-1.764 7.272-10.405 7.272-11.107 0-.701.308-9.462-1.148-12.733-1.455-3.27-4.543-9.368-12.13-10.166-7.587-.799-13.429.055-15.855 6.199-2.427 6.144-1.4 10.239.372 15.126 1.773 4.888 5.457 8.624 6.133 9.157" fill="#ff715d" fill-rule="evenodd" stroke="#26223c" stroke-linecap="round" stroke-width="3"/></svg><svg height="33" viewBox="0 0 25 33" width="25" id="selfie--foot-l" x="367.77" y="318" xmlns="http://www.w3.org/2000/svg"><path d="M10.318 3s.127.459 1.517 2.166c1.39 1.708 2.258 4.19 4.324 3.866 2.065-.325 2.277 1.428 2.324 3.297.047 1.869.865 3.076 1.75 5.877.884 2.801 3.71 7.574 2.458 10.554-1.254 2.98-5.56 2.64-8.517 0-2.956-2.64-6.796-9.605-6.796-9.605s-4.513-4.37-5.121-6.826c-.608-2.456-.145-3.832 1.466-4.909C5.335 6.343 10.318 3 10.318 3z" fill="#ebebe4" fill-rule="evenodd" stroke="#26223c" stroke-linecap="round" stroke-width="3"/></svg><svg height="30" viewBox="0 0 23 30" width="23" id="selfie--foot-r" x="309" y="370" xmlns="http://www.w3.org/2000/svg"><path d="M3.366 2.449s1.071 4.392 3.08 4.854c2.01.461 4.365.86 5.21-3.388.844-4.25.943-.1.943-.1s.494 3.483.778 5.826c.285 2.343 3.152 5.573 4.109 7.284.957 1.712 7.188 9.803 1.816 10.694s-7.18.82-9.479-2.822c-2.298-3.641-1.697-3.888-3.376-7.064-1.68-3.176-3.321-3.526-4.335-5.483s-.43-5.456 0-7.629C2.542 2.45 3.366 2.45 3.366 2.45z" fill="#ebebe4" fill-rule="evenodd" stroke="#26223c" stroke-linecap="round" stroke-width="3"/></svg><svg height="21" viewBox="0 0 34 21" width="34" id="selfie--forearm-l" x="85" y="169" xmlns="http://www.w3.org/2000/svg"><path d="M4.332 2.017c4.073-.408 8.554 6.68 14.075 8.325 5.52 1.645 11.724 2.227 12.921 2.561 1.198.335-2.197.812-2.197 3.544v2.91s-11.289-.947-15.039-1.777S3.024 14.25 2 11.987" fill="#e9d801" fill-rule="evenodd" stroke="#26223c" stroke-linecap="round" stroke-width="3"/></svg><svg height="39" viewBox="0 0 38 39" width="38" id="selfie--hair" x="329.77" y="318" xmlns="http://www.w3.org/2000/svg"><path d="M2.14 23.665s-.02 1.393.815 4.497c.836 3.104 3.345 5.08 3.603 5.82.26.738 1.937 2.648 2.609 2.575.672-.073 2.818.097 2.886-.949.069-1.046-5.303-6.692-5.399-8.27s.678-4.303 2.321-3.988c1.643.315 3.264 1.165 3.477 2.577.214 1.412 1.95.53 2.846-1.868s4.02-1.386 4.946-1.048c.926.339 2.265.879 6.181-2.985s7.566-1.198 8.61-1.363c1.044-.165-.306-3.518-.622-6.697-.316-3.18 3.765-3.092-.439-5.846s-4.336-.37-11.506-2.781C15.298.927 8.605 1.506 4.893 7.296 1.181 13.086 2.321 11.486 2 13.68" fill="#1341d5" fill-rule="evenodd" stroke="#26223c" stroke-linecap="round" stroke-width="3"/></svg><svg height="19" viewBox="0 0 29 19" width="29" id="selfie--hand-l" x="261" y="192" xmlns="http://www.w3.org/2000/svg"><path d="M11.413 10.781l-2.205-.265s-6.363-1.605-6.964.55c-.6 2.156-1.973 3.52 1.852 4.156 3.825.636 10.237 2.27 11.723 2.27.74 0 3.522-1.347 6.664-2.27s4.49-4.155 4.49-4.155 1.57-8.563-1.514-8.893c-3.463 0-2.032 6.568-2.621 6.889-.59.32.232-7.434-3.509-6.3s.027 7.535-.422 7.753c-.32.155-.68-5.214-3.544-3.883-2.865 1.331-.385 4.976-.106 6.603" fill="#ff715d" fill-rule="evenodd" stroke="#26223c" stroke-linecap="round" stroke-width="3"/></svg><svg height="21" viewBox="0 0 28 21" width="28" id="selfie--hand-r" x="225" y="281" xmlns="http://www.w3.org/2000/svg"><path d="M22.367 2s-12.356.688-14.734 2.371C5.253 6.054 4.089 7.82 3.12 9.263c-.968 1.445-.899 3.18-.899 3.18s-1.354 1.152 2.625.89c3.979-.262 6.903-.788 7.582-.838.68-.051 2.909-.885 3.463 0 .554.884-2.569 3.63-.188 5.566 2.381 1.937 2.434.61 5.278-4.071 2.844-4.681 3.865-5.123 3.865-5.123s1.918-2.732 1.332-4.395C25.593 2.81 22.367 2 22.367 2z" fill="#ff715d" fill-rule="evenodd" stroke="#26223c" stroke-linecap="round" stroke-width="3"/></svg><svg height="52" viewBox="0 0 75 52" width="75" id="selfie--leg-l" x="225" y="229" xmlns="http://www.w3.org/2000/svg"><path d="M2 24.404s8.176 6.186 16.226 5.567c8.051-.62 24.77-4.696 24.77-4.696s-5.313 4.762-8.119 9.112c-2.805 4.35-7.253 6.968-6.935 7.85s3.215-.24 4.76 1.299c1.546 1.537 2.878 3.894 1.546 5.736-1.331 1.84 6.054-3.56 12.83-7.838 6.778-4.278 24.372-19.565 24.372-19.565s5.834-7.971-2.924-13.21c-8.759-5.237-42.267-6.555-42.267-6.555s-8.367 1.7-13.547 2.956" fill="#eae0c7" fill-rule="evenodd" stroke="#26223c" stroke-linecap="round" stroke-width="3"/></svg><svg height="120" viewBox="0 0 62 120" width="62" id="selfie--leg-r" x="200" y="59.53" xmlns="http://www.w3.org/2000/svg"><path d="M29.113 29.597c1.193-.105 4.638 2.068 4.638 2.068s5 2.83 10.585 9.3c5.585 6.47 11.95 18.007 12.432 19.11s4.81 2.777 3.002 15.66c-1.807 12.883-2.509 38.107-2.509 38.107s-1.45 4.02-3.836 4.033c-2.385.014-6.124-.193-7.414-3.37-1.29-3.179-5.391-21.02-6.568-28.786s2.605-10.286 1.55-13.104-4.143-7.663-10.082-11.186C24.97 57.905 9.556 51.407 4.897 43.06c-4.66-8.346-2.735-17.916-1.04-26.473C5.55 8.032 6.42 6.726 6.42 6.726L7.454 4s3.017 4.117 7.917 4.86c4.9.743 19.858.23 25.249-2.715 5.39-2.946 5.84-1.775 5.84-1.775s4.846.944 3.122 5.902c-1.724 4.957-11.48 12.254-11.48 12.254s-1.312 1.407-1.575 2.444" fill="#eae0c7" fill-rule="evenodd" stroke="#26223c" stroke-linecap="round" stroke-width="3"/></svg><svg height="37" viewBox="0 0 23 37" width="23" id="selfie--neck" x="115" y="192" xmlns="http://www.w3.org/2000/svg"><path d="M2.694 2s-.458 8.417-.622 10.13c-.163 1.713 0 2.025 0 5.758 0 3.732 4.105 17.604 11.364 16.665 7.259-.94 6.932-12.532 7.259-16.665.326-4.133-2.85-5.758-2.85-5.758V3.257z" fill="#ff715d" fill-rule="evenodd" stroke="#26223c" stroke-linecap="round" stroke-width="3"/></svg><svg height="31" viewBox="0 0 16 31" width="16" id="selfie--phone" x="261" y="370" xmlns="http://www.w3.org/2000/svg"><path d="M4.237 6.376c-.965.54-1.748 1.88-1.748 2.978v18.319c0 1.105.791 1.569 1.748 1.046l8.015-4.373C13.217 23.82 14 22.497 14 21.398V2.908c0-1.102-.773-1.562-1.748-1.017z" fill="#ebebe4" fill-rule="evenodd" stroke="#26223c" stroke-width="3"/></svg><svg height="44" viewBox="0 0 30 44" width="30" id="selfie--pony" x="179" y="370" xmlns="http://www.w3.org/2000/svg"><path d="M14.61 2.98s-.907-2.342-3.44.215C8.639 5.752 7.303 7.094 6.92 8.103c-.381 1.01-.43 5.202-1.579 7.524s-3.389 3.937-3.34 6.177c.048 2.24.322 3.164 1.27 3.886.947.723 2.71.258 1.067 3.367-1.644 3.109.06 3.987.532 4.578.471.592 3.109.558 4.422-.007 1.314-.565 3.467-2.697 3.245.277-.222 2.975-.464 6.24.163 6.903.626.663 11.821 4.462 13.795-1.756 1.973-6.218 1.939-30.06.97-30.505S20.703 4.17 20.703 4.17z" fill="#1341d5" fill-rule="evenodd" stroke="#26223c" stroke-linecap="round" stroke-width="3"/></svg><svg height="27" viewBox="0 0 25 27" width="25" id="selfie--sole-l" x="332" y="370" xmlns="http://www.w3.org/2000/svg"><path d="M13.283 12.263c.796 1.04 4.401 5.503 6.597 6.817 2.14 1.28 3.568 2.347 2.95 3.817-1.253 2.98-5.56 2.64-8.516 0-2.957-2.64-6.797-9.605-6.797-9.605s-4.513-4.37-5.12-6.826c-.608-2.457-.674-3.225.938-4.302.69-.462 2.95-.092 4.182 3.013s4.97 6.046 5.766 7.086z" fill="#26223c" fill-rule="evenodd" stroke="#26223c" stroke-linecap="round" stroke-width="3"/></svg><svg height="74" viewBox="0 0 57 74" width="57" id="selfie--torso" x="342.4" xmlns="http://www.w3.org/2000/svg"><path d="M55.374 8.525s-6.588-4.866-10.776-5.567-8.39-1.31-12.81-.78c-4.418.531-11.202 2.76-11.202 2.76s-5.343 2.702-8.243 4.274c-2.901 1.572-5.853 1.608-8.677 8.474-2.824 6.867-1.35 37.49-.675 40.128.675 2.637.135 5.708 2.194 9.248 2.06 3.54 11.719 6.508 25 3.254 13.282-3.254 13.67-5.474 13.67-5.474s.417-5.874.209-8.696c-.209-2.822.856-7.48 2.032-10.581s7.295-.779 8.527-7.682c1.232-6.903-7.688-8.7-5.497-20.197" fill="#e9d801" fill-rule="evenodd" stroke="#26223c" stroke-linecap="round" stroke-width="3"/></svg><svg id="star" data-name="Layer 1" width="64" height="64" viewBox="0 0 64 64" x="399.4" y="192" xmlns="http://www.w3.org/2000/svg"><defs><style>.bncls-1{fill:#d4953f}</style></defs><title>star</title><path class="bncls-1" d="M32 0l-8 24H0l20 16-8 24 20-16 20 16-8-24 20-16H40z"/></svg><svg height="63" viewBox="0 0 34 63" width="34" id="steve--arm-l" y="370" xmlns="http://www.w3.org/2000/svg"><path d="M29.547 33.896L18.652 53.69s-2.035 7.067-9.892 7.067c-5.595 0-7.106-5.51-6.045-12.06.344-2.124 1.972-3.963 2.788-5.196 3.333-5.037 11.319-29.494 11.319-29.494s2.232-8.303 6.321-10.228 6.697-2.314 8.736-1.157" fill="#ff715d" fill-rule="evenodd" stroke="#26223c" stroke-linecap="round" stroke-width="3"/></svg><svg height="70" viewBox="0 0 34 70" width="34" id="steve--arm-r1" x="342.4" y="145" xmlns="http://www.w3.org/2000/svg"><path d="M6.741 2.345S5.585.085 10.591 3.9c1.895 1.444 8.609 13.675 13.531 23.9 4.103 8.522 6.98 17.953 6.98 17.953s1.928 5.086-.817 7.46c-2.745 2.373-10.813 8.17-15.808 10.422C9.48 65.888 2.84 67.418 2.84 67.418l-.414-10.555L17.405 48.5 5.043 27.802z" fill="#ff715d" fill-rule="evenodd" stroke="#26223c" stroke-linecap="round" stroke-width="3"/></svg><svg height="77" viewBox="0 0 36 77" width="36" id="steve--arm-r2" x="141" y="229" xmlns="http://www.w3.org/2000/svg"><path d="M4.741 2.345S3.585.085 8.591 3.9c1.895 1.444 9.325 14.41 14.61 23.9 3.758 6.748 9.793 16.519 9.793 16.519s1.928 5.086-.817 7.46C29.432 54.152 17.95 65.12 13.055 68.87c-4.894 3.75-10.393 5.62-10.393 5.62l-.414-10.555 17.049-16.87L3.043 27.803z" fill="#ff715d" fill-rule="evenodd" stroke="#26223c" stroke-linecap="round" stroke-width="3"/></svg><svg height="47" viewBox="0 0 33 47" width="33" id="steve--face" x="106" y="370" xmlns="http://www.w3.org/2000/svg"><path d="M6.586 3.635C5.194 5.35 4.581 11.19 4.44 13.377c-.117 1.796-2.74 5.102-2.441 7.613.065.545 2.731.823 2.83 1.298.557 2.658.983 4.776 1.757 5.974.775 1.198 3.847 4.616 4.418 4.949.571.333 2.102.655 2.102.655l-.14 11.504 17.944-1.523-.505-15.307S16.055 5.654 14.125 3.635c-1.931-2.02-6.146-1.717-7.539 0z" fill="#fedfda" fill-rule="evenodd" stroke="#26223c" stroke-width="3"/></svg><svg height="23" viewBox="0 0 42 23" width="42" id="steve--foot-l" x="149" y="169" xmlns="http://www.w3.org/2000/svg"><path d="M28.5 4.265s-6.92-.584-10.314-.39c-3.394.195-7.788-2.096-9.058-1.974-1.27.123-5.87-1.255-7.064 1.983s.242 5.473 4.148 7.486c3.905 2.013 9.252 4.082 11.541 5.063 2.29.98 9.794 3.524 9.794 3.524s5.427 1.912 8.585 1.471c3.158-.44 4.235-2.438 4.238-6.064.004-3.626-2.481-8.172-2.481-8.172z" fill="#ebebe4" fill-rule="evenodd" stroke="#26223c" stroke-width="3"/></svg><svg height="24" viewBox="0 0 35 24" width="35" id="steve--foot-r" x="196" y="192" xmlns="http://www.w3.org/2000/svg"><path d="M19.363 4.743s-2.32-1.821-8.378-2.249c-6.059-.428-7.004-.26-8.193 1.433-1.19 1.694 1.073 4.43 1.87 5.411.797.981 4.634 3.703 6.688 4.806 2.055 1.104 6.4 4.543 8.093 5.951 1.693 1.408 5.005 2.912 8.408 2.042 3.404-.87 4.936-3.445 4.75-6.618-.186-3.174-1.541-6.973-3.88-8.022s-9.358-2.754-9.358-2.754z" fill="#ebebe4" fill-rule="evenodd" stroke="#26223c" stroke-width="3"/></svg><svg height="36" viewBox="0 0 57 36" width="57" id="steve--forearm-l" x="342.4" y="279" xmlns="http://www.w3.org/2000/svg"><path d="M54.74 11.368c-1.658 2.958-3.262 4.251-10.895 8.018C36.212 23.152 6.712 33.56 6.712 33.56s-3.703-.521-4.915-4.179c-1.213-3.658 1.507-6.037 1.507-6.037L36.547 6.926s.754.081 5.245-4.965" fill="#ff715d" fill-rule="evenodd" stroke="#26223c" stroke-linecap="round" stroke-width="3"/></svg><svg height="46" viewBox="0 0 40 46" width="40" id="steve--hair" x="139" y="370" xmlns="http://www.w3.org/2000/svg"><path d="M2.787 15.767c1.232 1.44 5.035 3.679 5.958 5.241.923 1.563-1.084 4.736.709 6.514 1.792 1.778 3.884-6.108 6.849-3.054s0 12.288 0 12.288-.07 4.53 2.054 5.928 4.595 1.294 6.456 1.167c1.86-.127 4.469-1.167 4.469-1.167s4.805-6.63 5.417-8.336c.612-1.707 4.008-9.922 3.71-15.398-.297-5.477-3.897-12.068-7.982-13.914-4.085-1.846-7.989-3.779-12.07-3.488-4.081.29-12.04 2.098-13.386 4.489s-3.415 8.29-2.184 9.73z" fill="#e9d801" fill-rule="evenodd" stroke="#26223c" stroke-width="3"/></svg><svg height="22" viewBox="0 0 30 22" width="30" id="steve--hand-l" x="231" y="192" xmlns="http://www.w3.org/2000/svg"><path d="M25.98 3.609s-7.36.488-10.217-.19c-2.857-.678-6.867-1.99-8.32-1.533s-.802 3.095.494 3.941c1.296.846 4.245.632 5.242 1.239.997.607-1.986 2.243-1.986 2.243s-8.15 4.835-8.575 5.918-.743 1.783.806 3.812c1.548 2.03 8.021 1.53 9.84.696 1.818-.834 12.168-5.638 14.088-7.213 1.92-1.575.712-3.693.712-3.693z" fill="#fedfda" fill-rule="evenodd" stroke="#26223c" stroke-width="3"/></svg><svg height="169" viewBox="0 0 64 169" width="64" id="steve--legs" x="85" xmlns="http://www.w3.org/2000/svg"><path d="M12.438 7.58s-9.92 63.499-9.92 79.459-.308 56.518-.154 64.858c.155 8.339-1.498 10.973 1.687 13.305s7.097 3.184 10.737 1.383c1.342-.665 2.084-2.132 2.782-3.47 1.36-2.604 1.88-7.043 1.362-13.864-.782-10.327 1.836-33.19 2.393-38.357.557-5.167.281-8.322 2.89-19.933 2.609-11.61 7.25-38.039 7.143-41.125-.107-3.086 1.799-9.207 1.799-9.207l3.223-1.975s-.414 27.424-.207 32.736c.207 5.312-.546 9.452-.17 16.106.377 6.654 7.032 37.191 7.545 41.045.512 3.854 1.812 14.132 1.812 14.132s1.086 3.043 3.612 4.26c2.527 1.217 6.912.835 8.273 0 1.36-.836 3.812-5.215 2.399-11.823s-2.996-34.949-2.4-36.88c.597-1.93-1.313-12.003-1.654-13.53s.04-16.867 1.145-25.866c1.106-8.998 4.611-49.623 4.611-49.623s1.125-6.175-.289-6.818c-1.413-.644-48.62 5.186-48.62 5.186z" fill="#1579ec" fill-rule="evenodd" stroke="#26223c" stroke-width="3"/></svg><svg height="84" viewBox="0 0 58 84" width="58" id="steve--torso" x="31" y="229" xmlns="http://www.w3.org/2000/svg"><path d="M54.308 3.926c-1.846-1.659-5.29-1.453-5.29-1.453s-4.887 0-12.694.376-12.76 2.544-18.616 4.644c-5.855 2.1-6.216 6.124-7.016 13.11-.8 6.987-3.156 31.876-3.156 31.876S4.137 66.31 4.137 71.547c0 5.238-.487 6.523-1.56 8.236-1.074 1.713 3.546 2.399 3.546 2.399s5.241-.822 9.276-.41c4.034.41 24.565-.092 24.565-.092s14.87-1.36 15.53-2.87c.66-1.512-1.408-11.39-.704-15.33.704-3.94.864-19.423.864-19.423s.676-16.527-.16-19.086" fill="#ff715d" fill-rule="evenodd" stroke="#26223c" stroke-linecap="round" stroke-width="3"/></svg><svg height="37" viewBox="0 0 95 37" width="95" id="tina--arm-r" y="192" xmlns="http://www.w3.org/2000/svg"><path d="M5.323 16.562S-.329 8.98 2.408 4.992 10.836-.564 19.206 7.27c8.37 7.834 10.788 15.135 14.726 15.994s37.931-1.902 41.639-4.206c.958-.595 2.122-1.565 3.32-2.675.408-.377-1.45-10.298 3.701-11.201.596-.584.244 8.173.808 7.587 2.314-2.405 4.187-4.587 4.187-4.587s3.781-6.797 5.028-5.994.506 5.484-.247 7.947-2.551 3.957-3.781 6.281c-1.23 2.325-3.496 6.942-8.202 8.847-4.707 1.904-12.359 4.038-19.787 5.294-7.427 1.257-27.04 5.666-31.613 4.164-4.574-1.502-23.662-18.16-23.662-18.16z" fill="#e9d801" fill-rule="evenodd" stroke="#26223c" stroke-linecap="round" stroke-width="3"/></svg><svg height="39" viewBox="0 0 36 39" width="36" id="tina--face" x="293.77" y="318" xmlns="http://www.w3.org/2000/svg"><path d="M13.81 34.494s6.463 3.527 11.482 1.764c5.018-1.764 2.872-7.77 6.823-9.345 3.95-1.574.757-11.224-.699-14.495-1.455-3.27-4.543-9.368-12.13-10.166-7.587-.799-13.429.055-15.855 6.199-2.427 6.144-1.4 10.239.372 15.126 1.773 4.888 5.457 8.624 6.133 9.157" fill="#e9d801" fill-rule="evenodd" stroke="#26223c" stroke-linecap="round" stroke-width="3"/></svg><svg height="39" viewBox="0 0 38 39" width="38" id="tina--hair" x="220.76999999999998" y="318" xmlns="http://www.w3.org/2000/svg"><path d="M2.14 23.665s-.02 1.393.815 4.497c.836 3.104 3.345 5.08 3.603 5.82.26.738 1.937 2.648 2.609 2.575.672-.073 2.818.097 2.886-.949.069-1.046-5.303-6.692-5.399-8.27s.678-4.303 2.321-3.988c1.643.315 3.264 1.165 3.477 2.577.214 1.412 1.95.53 2.846-1.868s4.02-1.386 4.946-1.048c.926.339 2.265.879 6.181-2.985s7.566-1.198 8.61-1.363c1.044-.165-.306-3.518-.622-6.697-.316-3.18 3.765-3.092-.439-5.846s-4.336-.37-11.506-2.781C15.298.927 8.605 1.506 4.893 7.296 1.181 13.086 2.321 11.486 2 13.68" fill="#26223c" fill-rule="evenodd" stroke="#26223c" stroke-linecap="round" stroke-width="3"/></svg><svg height="169" viewBox="0 0 51 169" width="51" id="tina--leg-l" x="149" xmlns="http://www.w3.org/2000/svg"><path d="M6.172 40.64c1.41 7.513 8.377 25.514 12.014 32.526 3.637 7.013 8.966 11.824 9.626 15.467.661 3.643-6.133 17.151 0 27.45 6.134 10.298 7.594 38.051 7.519 41.213s.081 7.383.081 7.383 1.107 2.011 3.869 1.883c2.761-.129 7.615-.53 6.81-3.78s-1.785-5.731-.892-19.032c.892-13.302 2.472-40.796 3.05-44.8.578-4.003 1.814-7.61-.618-16.697s-5.93-30.988-13.187-48.75C27.188 15.744 30.78 6.7 25.34 2.35 23.102.56 15.92 4.129 12.5 6.166 7.613 9.08 1.238 11.095 1.618 14.531c.645 5.839 3.146 18.597 4.555 26.11z" fill="#d6cfc7" fill-rule="evenodd" stroke="#26223c" stroke-linecap="round" stroke-width="3"/></svg><svg height="192" viewBox="0 0 46 192" width="46" id="tina--leg-r" xmlns="http://www.w3.org/2000/svg"><path d="M43.27 1.687s-7.044 4.235-14.808 4.68c-7.067.406-14.813-3.203-16.804 1.02C7.48 16.249-.517 21.557 2.745 39.113c1.337 7.2 9.304 26.9 12.661 38.437 4.828 16.59 5.055 24.91 3.95 27.56-1.873 4.496-6.177 19.08-5.338 25.954.84 6.874 3.63 42.995 3.833 48.016.202 5.022-.556 8.423-.556 8.423s1.682 3.07 4.945 2.501 4.93-.977 5.576-3.612c.646-2.636.199-9.929 1.215-18.833 1.016-8.905 7.1-50.358 7.685-52.506s4.219-15.139 4.231-19.205-.905-33.233-.452-42.502c.452-9.268-.749-18.206-.86-20.47-.11-2.263 2.915-3.1 4.456-9.274" fill="#d6cfc7" fill-rule="evenodd" stroke="#26223c" stroke-linecap="round" stroke-width="3"/></svg><svg height="37" viewBox="0 0 23 37" width="23" id="tina--neck" x="138" y="192" xmlns="http://www.w3.org/2000/svg"><path d="M2.694 2s-.458 8.417-.622 10.13c-.163 1.713 0 2.025 0 5.758 0 3.732 4.105 17.604 11.364 16.665 7.259-.94 6.932-12.532 7.259-16.665.326-4.133-2.85-5.758-2.85-5.758V3.257z" fill="#e9d801" fill-rule="evenodd" stroke="#26223c" stroke-linecap="round" stroke-width="3"/></svg><svg height="31" viewBox="0 0 16 31" width="16" id="tina--phone" x="293" y="370" xmlns="http://www.w3.org/2000/svg"><path d="M3.748 6.963C2.783 7.503 2 8.844 2 9.943V28.26c0 1.105.791 1.568 1.748 1.046l8.015-4.373c.965-.527 1.748-1.849 1.748-2.949V3.495c0-1.101-.773-1.562-1.748-1.016z" fill="#ebebe4" fill-rule="evenodd" stroke="#26223c" stroke-width="3"/></svg><svg height="43" viewBox="0 0 17 43" width="17" id="tina--pony" x="209" y="370" xmlns="http://www.w3.org/2000/svg"><path d="M11.68 1.823s-12.594.89-9.54 15.424c3.055 14.535 3.1 23.528 2.151 24.196-.948.668 6.51-8.353 6.601-16.676.09-8.322.295-17.366 4.337-16.763" fill="#26223c" fill-rule="evenodd" stroke="#26223c" stroke-linecap="round" stroke-width="3"/></svg><svg height="43" viewBox="0 0 17 43" width="17" id="tina--sleeve-l" x="376.4" y="145" xmlns="http://www.w3.org/2000/svg"><path d="M1.622 2.414s12.018-.066 13 7.333c.98 7.4-3.332 19.783-3.332 19.783l-6.321 9.013z" fill="#ff715d" fill-rule="evenodd" stroke="#26223c" stroke-linecap="round" stroke-width="3"/></svg><svg height="35" viewBox="0 0 35 35" width="35" id="tina--sleeve-r" x="226" y="370" xmlns="http://www.w3.org/2000/svg"><path d="M30.678 20.43S17.064 6.893 15.977 4.896C14.89 2.898 7.444.335 4.194 4.12s-2.405 10.921.58 13.818c2.985 2.897 11.856 11.448 13.62 14.061 1.766 2.614-.267-4.47 3.82-8.12 4.087-3.65 8.464-3.448 8.464-3.448z" fill="#ff715d" fill-rule="evenodd" stroke="#26223c" stroke-linecap="round" stroke-width="3"/></svg><svg height="78" viewBox="0 0 52 78" width="52" id="tina--torso" x="89" y="229" xmlns="http://www.w3.org/2000/svg"><path d="M3.13 43.198c1.941 7.268 6.418 12.483 2.885 22.469s2.823 10.154 7.522 9.428c2.702-.418 11.894 1.828 19.708 1.043 5.776-.58 10.81-3.792 11.859-5.9 1.45-2.914-1.3-8.786-2.068-15.194-.54-4.5.813-9.96 1.343-11.846 1.284-4.572 6.968-5.992 5.676-10.124-.92-2.94-1.313-4.27-1.684-10.124-.151-2.374.63-7.702-.62-11.047C43.414.31 38.886 1.27 32.847 1.842c-6.04.572-16.865 2.505-25.132 11.145-8.268 8.64-6.526 22.943-4.585 30.21z" fill="#ff715d" fill-rule="evenodd" stroke="#26223c" stroke-linecap="round" stroke-width="3"/></svg><svg id="twitter" data-name="Layer 1" width="51.78" height="42.06" viewBox="0 0 51.78 42.06" x="71" y="318" xmlns="http://www.w3.org/2000/svg"><defs><style>.ckcls-1{fill:#fff}</style></defs><title>twitter</title><path class="ckcls-1" d="M51.78 5a22.23 22.23 0 0 1-5.32 5.52v1.38a30.15 30.15 0 0 1-1.25 8.53 30.81 30.81 0 0 1-3.76 8.13 32.1 32.1 0 0 1-6.06 6.92 27 27 0 0 1-8.48 4.8 31 31 0 0 1-10.62 1.8A29.47 29.47 0 0 1 0 37.29a22.71 22.71 0 0 0 2.56.13 20.78 20.78 0 0 0 13.17-4.53 10.63 10.63 0 0 1-9.92-7.36 13.45 13.45 0 0 0 2 .16 11 11 0 0 0 2.79-.36 10.44 10.44 0 0 1-6.09-3.67 10.25 10.25 0 0 1-2.41-6.75v-.13a10.52 10.52 0 0 0 4.8 1.34 10.6 10.6 0 0 1-3.45-3.78 10.34 10.34 0 0 1-1.28-5.07 10.4 10.4 0 0 1 1.45-5.33 30.08 30.08 0 0 0 9.71 7.83A29.57 29.57 0 0 0 25.53 13a11.79 11.79 0 0 1-.26-2.43 10.23 10.23 0 0 1 3-7.48 10.64 10.64 0 0 1 15 0l.21.22A20.81 20.81 0 0 0 50.33.8a10.3 10.3 0 0 1-4.67 5.85A21.14 21.14 0 0 0 51.78 5z"/></svg><svg id="wifi" data-name="Layer 1" width="60" height="64" viewBox="0 0 60 64" x="399.4" y="304" xmlns="http://www.w3.org/2000/svg"><defs><style>.clcls-1{fill:#d4953e}</style></defs><title>wifi</title><path class="clcls-1" d="M29.88 0A55.39 55.39 0 0 0 0 8.72l4.22 6.48a47.32 47.32 0 0 1 25.66-7.28 47.31 47.31 0 0 1 25.9 7.28L60 8.72A55.53 55.53 0 0 0 29.88 0zm0 24a31.08 31.08 0 0 0-17 5l4.22 6.72A23.09 23.09 0 0 1 29.8 32a24.17 24.17 0 0 1 13 3.76L47 29a32.37 32.37 0 0 0-17.2-5h.07zm0 24a8 8 0 1 0 8 8 8 8 0 0 0-8-8z"/></svg><svg id="youtube" data-name="Layer 1" width="34.75" height="42" viewBox="0 0 34.75 42" x="186.01999999999998" y="318" xmlns="http://www.w3.org/2000/svg"><defs><style>.cmcls-1{fill:#fff}</style></defs><title>youtube</title><path class="cmcls-1" d="M22.13 29.15v5q0 1.57-.91 1.57a1.5 1.5 0 0 1-1.06-.52v-7.11a1.5 1.5 0 0 1 1.06-.54q.91 0 .91 1.6zm7.92 0v1.08h-2.1v-1.06q0-1.59 1.06-1.59t1 1.59zM7.42 24h2.5v-2.14h-7.3v2.2h2.46V37.4h2.34V24zm6.75 13.4h2.09V25.82h-2.09v8.86a1.86 1.86 0 0 1-1.31 1 .48.48 0 0 1-.49-.47 6.52 6.52 0 0 1 0-.82v-8.57h-2.14V35a5.79 5.79 0 0 0 .19 1.71 1.26 1.26 0 0 0 1.36.87 3.43 3.43 0 0 0 2.39-1.43v1.25zm10.05-3.47v-4.6A8.33 8.33 0 0 0 24 27a1.63 1.63 0 0 0-1.67-1.31A2.82 2.82 0 0 0 20.16 27v-5.1h-2.08v15.5h2.09v-1.13a2.91 2.91 0 0 0 2.18 1.31A1.62 1.62 0 0 0 24 36.27a8.61 8.61 0 0 0 .22-2.35zm7.92-.24v-.3H30a11.6 11.6 0 0 1 0 1.43.9.9 0 0 1-.94.85q-1.08 0-1.08-1.61V32h4.19v-2.41a4.65 4.65 0 0 0-.66-2.72 3.2 3.2 0 0 0-5 0 4.52 4.52 0 0 0-.66 2.72v4.05a4.4 4.4 0 0 0 .66 2.72 3 3 0 0 0 2.49 1.2 2.9 2.9 0 0 0 3-2.51 10.31 10.31 0 0 0 .09-1.36zM17.89 12.3V7.38q0-1.61-1-1.61t-1 1.61v4.92q0 1.64 1 1.64t1-1.64zm16.85 17.6a40.6 40.6 0 0 1-.61 8.2 4.45 4.45 0 0 1-1.36 2.32 4.1 4.1 0 0 1-2.39 1.08 125.31 125.31 0 0 1-13 .49 125.31 125.31 0 0 1-13-.49A4.15 4.15 0 0 1 2 40.42 4.28 4.28 0 0 1 .63 38.1 39.76 39.76 0 0 1 0 29.9a40.6 40.6 0 0 1 .61-8.2A4.45 4.45 0 0 1 2 19.37a4.25 4.25 0 0 1 2.41-1.1q4.29-.47 13-.47t13 .47a4.4 4.4 0 0 1 3.75 3.42 39.76 39.76 0 0 1 .58 8.21zM11.35 0h2.39l-2.83 9.35v6.35H8.57V9.35a39.68 39.68 0 0 0-1.43-5Q6.27 2 5.61 0H8.1l1.67 6.16zM20 7.8v4.1a4.59 4.59 0 0 1-.66 2.76 2.88 2.88 0 0 1-2.49 1.19 2.9 2.9 0 0 1-2.46-1.19 4.68 4.68 0 0 1-.66-2.76V7.8a4.59 4.59 0 0 1 .66-2.74 2.9 2.9 0 0 1 2.46-1.19 2.88 2.88 0 0 1 2.49 1.19A4.59 4.59 0 0 1 20 7.8zM27.87 4v11.7h-2.13v-1.27a3.37 3.37 0 0 1-2.41 1.45A1.31 1.31 0 0 1 22 15a6 6 0 0 1-.19-1.76V4h2.13v8.6a6.14 6.14 0 0 0 0 .82.49.49 0 0 0 .47.52 1.87 1.87 0 0 0 1.31-1V4h2.16z"/></svg></svg>