<svg height="46" viewBox="0 0 40 46" width="40" xmlns="http://www.w3.org/2000/svg"><path d="m2.78731146 15.7670455c1.23164412 1.4397824 5.03487901 3.6785571 5.95765734 5.2410265.92277832 1.5624695-1.08380769 4.7357361.70865905 6.5139323 1.79246675 1.7781962 3.88418245-6.1077926 6.84899595-3.0538963s0 12.2878028 0 12.2878028-.070367 4.5297375 2.0544203 5.9276656 4.595225 1.2943726 6.4555805 1.1673891c1.8603554-.1269834 4.4692938-1.1673891 4.4692938-1.1673891s4.8048442-6.6289187 5.4168472-8.3355574c.612003-1.7066386 4.0080946-9.9218959 3.710686-15.3984158-.2974087-5.4765199-3.8973421-12.06772542-7.9822951-13.91375946-4.084953-1.84603403-7.9889784-3.77847411-12.0701124-3.48774881-4.0811339.2907253-12.04090808 2.09776906-13.3856916 4.48849532s-3.41568516 8.29067275-2.18404104 9.73045525z" fill="#e9d801" fill-rule="evenodd" stroke="#26223c" stroke-width="3"/></svg>