<svg height="169" viewBox="0 0 64 169" width="64" xmlns="http://www.w3.org/2000/svg"><path d="m12.4379461 7.57931415s-9.91900531 63.49925555-9.91900531 79.45930295c0 15.9600469-.30901124 56.5184109-.15450562 64.8578839.15450562 8.339472-1.49880057 10.973441 1.68679275 13.305359s7.09667878 3.184559 10.73635898 1.383075c1.34251-.664484 2.0842815-2.132423 2.7827768-3.470372 1.3594819-2.604053 1.8789995-7.042322 1.3619261-13.863812-.7827434-10.326338 1.8361907-33.190616 2.3929217-38.356977.556731-5.166362.2809193-8.321596 2.8896381-19.9325019 2.6087189-11.6109057 7.250272-38.039028 7.1430119-41.1253096-.1072601-3.0862817 1.7991604-9.2064919 1.7991604-9.2064919l3.2229106-1.9753735s-.4137175 27.4241089-.2068587 32.7360376c.2068587 5.3119288-.5465158 9.4516578-.1698285 16.1056147.3766872 6.6539568 7.032092 37.1916276 7.5445961 41.0455226.5125042 3.853895 1.8122818 14.131565 1.8122818 14.131565s1.0858141 3.042784 3.6121639 4.259774c2.5263497 1.21699 6.9118309.835273 8.2722885 0 1.3604576-.835272 3.8128412-5.215033 2.3993063-11.822316s-2.9956214-34.948916-2.3993063-36.8795974c.5963151-1.9306817-1.3139362-12.0041927-1.6548701-13.5313722s.0395841-16.8666506 1.1453847-25.8650068c1.1058005-8.9983561 4.6109073-49.62311866 4.6109073-49.62311866s1.1249541-6.17511713-.2885807-6.81867773c-1.4135349-.64356059-48.6194707 5.18679194-48.6194707 5.18679194z" fill="#1579ec" fill-rule="evenodd" stroke="#26223c" stroke-width="3"/></svg>