<svg height="84" viewBox="0 0 58 84" width="58" xmlns="http://www.w3.org/2000/svg"><path d="m54.3084287 3.92601274c-1.8466626-1.65894968-5.290331-1.45321634-5.290331-1.45321634s-4.8873367 0-12.6937169.37640861-12.760394 2.54426994-18.6160116 4.6438398c-5.8556176 2.09956985-6.2161457 6.12360849-7.0161368 13.11026329-.79999116 6.9866548-3.15573902 31.8758139-3.15573902 31.8758139s-3.39947094 13.8298222-3.39947094 19.0680934c0 5.2382713-.48746389 6.5227779-1.56067067 8.235781-1.07320678 1.7130032 3.54688945 2.3989907 3.54688945 2.3989907s5.24121958-.8216126 9.27557288-.4108063c4.0343534.4108063 24.5648385-.0913995 24.5648385-.0913995s14.8705969-1.3591987 15.530049-2.8707298c.6594522-1.5115312-1.4073554-11.3895545-.7036777-15.3295599.7036777-3.9400055.8638725-19.4228807.8638725-19.4228807s.6761596-16.5265982-.1601948-19.0857836" fill="#ff715d" fill-rule="evenodd" stroke="#26223c" stroke-linecap="round" stroke-width="3"/></svg>